<svg xmlns="http://www.w3.org/2000/svg" width="192" height="192" viewBox="0 0 192 192">
<g>
<path d="M 167.99 45.75 C168.00,50.84 167.89,54.97 167.75,54.93 C167.00,54.73 94.02,11.35 93.40,10.73 C93.00,10.33 99.38,10.00 107.58,10.01 L 122.50 10.01 L 130.00 14.35 C134.12,16.74 141.55,21.08 146.50,24.00 C151.45,26.91 158.31,30.92 161.74,32.90 L 167.98 36.50 ZM 130.87 154.64 C127.77,156.49 124.62,157.95 123.87,157.90 C121.48,157.72 108.87,149.73 109.70,148.92 C110.14,148.50 119.67,142.93 130.88,136.55 L 151.27 124.95 L 158.74 129.35 L 166.20 133.75 L 151.35 142.51 C143.18,147.33 133.97,152.79 130.87,154.64 Z" fill="rgb(60,101,171)"/>
<path d="M 37.00 116.04 C37.00,135.82 36.66,151.99 36.25,151.98 C35.84,151.97 32.58,150.26 29.00,148.18 L 22.50 144.39 L 22.24 108.24 L 21.98 72.08 L 27.32 68.66 C39.03,61.17 84.87,34.00 85.80,34.00 C87.69,34.00 99.98,41.51 99.67,42.47 C99.49,43.01 96.24,45.31 92.43,47.58 C83.13,53.14 47.69,73.97 41.75,77.37 L 37.00 80.08 ZM 131.86 176.64 C127.65,179.04 124.01,181.00 123.77,181.00 C123.52,181.00 116.84,177.13 108.91,172.41 C100.99,167.68 87.07,159.49 78.00,154.21 C68.93,148.93 61.17,144.13 60.77,143.55 C59.73,142.07 59.85,129.79 60.91,128.11 C61.79,126.73 74.71,133.72 110.97,155.20 C117.28,158.94 123.11,162.00 123.92,162.00 C124.74,162.00 134.20,156.85 144.95,150.56 C155.70,144.27 165.29,138.82 166.25,138.45 C167.84,137.85 168.00,138.62 167.99,146.64 C167.99,155.23 167.90,155.55 165.24,157.14 C158.58,161.12 138.84,172.65 131.86,176.64 Z" fill="rgb(247,191,57)"/>
<path d="M 86.21 30.00 C85.20,30.00 70.59,38.28 53.76,48.40 C36.92,58.52 22.88,66.55 22.57,66.24 C22.26,65.92 22.00,61.98 22.00,57.48 L 22.00 49.30 L 86.03 10.96 L 89.27 12.64 C91.04,13.56 93.62,15.09 95.00,16.04 C96.38,17.00 105.82,22.62 116.00,28.55 C126.18,34.47 137.88,41.35 142.00,43.84 C146.12,46.32 150.40,48.84 151.50,49.44 C157.51,52.69 165.00,57.57 165.00,58.22 C165.00,59.02 159.63,62.60 154.40,65.30 C151.31,66.89 151.24,66.87 141.40,61.10 C100.91,37.39 87.80,30.00 86.21,30.00 ZM 114.41 181.14 C114.12,181.61 107.94,182.00 100.67,182.00 L 87.46 182.00 L 64.98 168.90 C52.61,161.69 42.17,155.28 41.77,154.65 C41.36,154.02 41.02,137.71 41.02,118.40 C41.01,115.27 41.01,112.41 41.00,109.80 C40.96,89.14 40.95,83.90 43.56,81.17 C44.77,79.89 46.56,79.16 49.18,77.67 C49.71,77.37 50.20,77.07 50.67,76.80 C52.62,75.64 53.97,74.84 54.91,75.18 C57.23,76.02 57.04,83.86 57.24,110.59 L 57.50 146.19 L 68.00 152.47 C73.78,155.92 86.70,163.59 96.72,169.52 C106.74,175.44 114.70,180.67 114.41,181.14 Z" fill="rgb(250,131,12)"/>
<path d="M 0.00 96.00 L 0.00 0.00 L 96.00 0.00 L 192.00 0.00 L 192.00 96.00 L 192.00 192.00 L 96.00 192.00 L 0.00 192.00 L 0.00 96.00 ZM 114.41 181.14 C114.70,180.67 106.74,175.44 96.72,169.52 C86.70,163.59 73.78,155.92 68.00,152.47 L 57.50 146.19 L 57.24 110.59 C56.94,70.52 57.53,72.91 49.18,77.67 C40.23,82.77 41.00,78.96 41.02,118.40 C41.02,137.71 41.36,154.02 41.77,154.65 C42.17,155.28 52.61,161.69 64.98,168.90 L 87.46 182.00 L 100.67 182.00 C107.94,182.00 114.12,181.61 114.41,181.14 ZM 131.86 176.64 C138.84,172.65 158.58,161.12 165.24,157.14 C167.90,155.55 167.99,155.23 167.99,146.64 C168.00,138.62 167.84,137.85 166.25,138.45 C165.29,138.82 155.70,144.27 144.95,150.56 C134.20,156.85 124.74,162.00 123.92,162.00 C123.11,162.00 117.28,158.94 110.97,155.20 C74.71,133.72 61.79,126.73 60.91,128.11 C59.85,129.79 59.73,142.07 60.77,143.55 C61.17,144.13 68.93,148.93 78.00,154.21 C87.07,159.49 100.99,167.68 108.91,172.41 C116.84,177.13 123.52,181.00 123.77,181.00 C124.01,181.00 127.65,179.04 131.86,176.64 ZM 130.87 154.64 C133.97,152.79 143.18,147.33 151.35,142.51 L 166.20 133.75 L 158.74 129.35 L 151.27 124.95 L 130.88 136.55 C119.67,142.93 110.14,148.50 109.70,148.92 C108.87,149.73 121.48,157.72 123.87,157.90 C124.62,157.95 127.77,156.49 130.87,154.64 ZM 37.00 116.04 L 37.00 80.08 L 41.75 77.37 C47.69,73.97 83.13,53.14 92.43,47.58 C96.24,45.31 99.49,43.01 99.67,42.47 C99.98,41.51 87.69,34.00 85.80,34.00 C84.87,34.00 39.03,61.17 27.32,68.66 L 21.98 72.08 L 22.24 108.24 L 22.50 144.39 L 29.00 148.18 C32.58,150.26 35.84,151.97 36.25,151.98 C36.66,151.99 37.00,135.82 37.00,116.04 ZM 86.21 30.00 C87.80,30.00 100.91,37.39 141.40,61.10 C151.24,66.87 151.31,66.89 154.40,65.30 C159.63,62.60 165.00,59.02 165.00,58.22 C165.00,57.57 157.51,52.69 151.50,49.44 C150.40,48.84 146.12,46.32 142.00,43.84 C137.88,41.35 126.18,34.47 116.00,28.55 C105.82,22.62 96.38,17.00 95.00,16.04 C93.62,15.09 91.04,13.56 89.27,12.64 L 86.03 10.96 L 54.02 30.13 L 22.00 49.30 L 22.00 57.48 C22.00,61.98 22.26,65.92 22.57,66.24 C22.88,66.55 36.92,58.52 53.76,48.40 C70.59,38.28 85.20,30.00 86.21,30.00 ZM 167.99 45.75 L 167.98 36.50 L 161.74 32.90 C158.31,30.92 151.45,26.91 146.50,24.00 C141.55,21.08 134.12,16.74 130.00,14.35 L 122.50 10.01 L 107.58 10.01 C99.38,10.00 93.00,10.33 93.40,10.73 C94.02,11.35 167.00,54.73 167.75,54.93 C167.89,54.97 168.00,50.84 167.99,45.75 Z" fill="rgb(254,253,251)"/>
</g>
</svg>
